<svg width="507" height="92" viewBox="0 0 507 92" fill="none" xmlns="http://www.w3.org/2000/svg">
<path d="M61.852 76.1312V40.1063H67.616V51.4181C69.2731 44.8616 73.8123 39.3858 80.657 39.3858C88.1501 39.3858 91.9688 44.2132 91.9688 52.715V55.1647H86.2769V53.7237C86.2769 47.8877 83.2508 44.7896 78.1352 44.7896C72.2272 44.7896 67.616 50.3374 67.616 57.4703V76.1312H61.852Z" fill="black"/>
<path d="M107.06 76.9958C100.072 76.9958 95.9647 73.4653 95.9647 67.8455C95.9647 58.8393 106.772 57.4703 114.265 56.8939C118.877 56.6057 123.272 56.1014 123.272 53.2914C123.272 47.5995 119.021 44.0691 113.401 44.0691C107.421 44.0691 103.386 47.5995 102.521 53.5076H97.1175C97.9821 44.5014 104.755 39.3858 113.473 39.3858C122.407 39.3858 128.603 44.8616 128.603 53.8678V71.0156H133.575V76.1312H123.344V64.3871C121.326 71.52 115.418 76.9958 107.06 76.9958ZM109.51 72.3846C117.363 72.3846 123.272 66.2604 123.272 59.0554L123.344 56.1014C121.831 57.4703 118.949 57.9026 115.13 58.1908C106.196 58.9113 101.801 61.1448 101.801 66.0442C101.801 70.2952 104.899 72.3846 109.51 72.3846Z" fill="black"/>
<path d="M161.348 91.2616C148.523 91.2616 140.741 87.0107 140.741 79.9498C140.741 74.9784 144.848 70.5113 154.575 69.2144C144.272 68.2778 137.643 66.0442 137.643 60.1362C137.643 57.7585 139.589 55.8132 142.254 55.8132C143.407 55.8132 144.416 56.0293 145.569 56.5337C143.984 54.7324 143.119 52.7871 143.119 50.7697C143.119 44.6455 148.667 40.2504 158.826 39.5299V30.7399H164.662V39.5299C174.821 40.0343 181.161 44.4293 181.161 51.202C181.161 58.3349 173.74 62.802 162.14 62.802C148.955 62.802 147.946 57.3262 142.182 57.3262C140.309 57.3262 139.084 58.6231 139.084 60.1362C139.084 66.3324 149.748 67.9896 161.78 68.2778C173.596 68.566 182.17 71.3759 182.17 79.4455C182.17 86.7225 174.1 91.2616 161.348 91.2616ZM162.14 61.361C170.21 61.361 175.469 57.8306 175.469 52.4989C175.469 47.0952 170.21 43.4927 162.14 43.4927C154.071 43.4927 148.883 47.0952 148.883 52.4989C148.883 57.8306 153.926 61.361 162.14 61.361ZM161.42 86.7945C170.426 86.7945 176.19 83.4082 176.19 78.3647C176.19 72.8889 170.93 69.7908 161.42 69.7908C152.485 69.7908 146.649 73.2492 146.649 78.3647C146.649 83.4082 152.485 86.7945 161.42 86.7945Z" fill="black"/>
<path d="M205.968 76.8517C194.944 76.8517 186.73 68.7821 186.73 58.1188C186.73 47.4554 194.944 39.3858 205.968 39.3858C216.919 39.3858 225.205 47.4554 225.205 58.1188C225.205 68.7821 216.919 76.8517 205.968 76.8517ZM205.968 71.4479C213.533 71.4479 219.297 65.684 219.297 58.1188C219.297 50.5535 213.533 44.7175 205.968 44.7175C198.33 44.7175 192.566 50.5535 192.566 58.1188C192.566 65.684 198.33 71.4479 205.968 71.4479Z" fill="black"/>
<path d="M235.433 76.1312V40.1063H241.197V51.4181C243.07 44.2132 248.329 39.3858 255.102 39.3858C264.324 39.3858 269.872 46.0144 269.872 56.5337V76.1312H264.108V57.3262C264.108 49.6169 259.713 44.7896 252.652 44.7896C246.168 44.7896 241.197 50.1933 241.197 57.3262V76.1312H235.433Z" fill="black"/>
<path d="M0 77.2237V0.261597H38.4811V7.95781H46.1773V15.654H53.8735V61.8313H46.1773V69.5275H38.4811V77.2237H0ZM38.0902 69.5275V61.8313H45.7865V15.654H38.0902V7.95781H7.69621V69.5275H38.0902Z" fill="black"/>
<path d="M298.485 12.4313V35.52H314.268V43.2162H329.66V50.9124H336.966V74.001H329.66V81.6973H298.094V74.001H290.789V58.6086H298.485V74.001H329.27V50.9124H313.877V43.2162H298.094V35.52H290.789V12.4313H298.094V4.73512H329.66V12.4313H336.966V27.8238H329.27V12.4313H298.485Z" fill="black"/>
<path d="M367.577 79.8345C358.643 79.8345 354.68 75.6556 354.68 68.0183V48.2767H345.89V43.0891H352.59C354.247 43.0891 355.184 42.1525 355.184 40.4233V34.4432H360.444L360.372 43.0891H375.862V48.2767H360.372V66.7935C360.372 72.1252 362.965 74.4307 368.657 74.4307C370.603 74.4307 373.124 74.0705 375.862 73.422V78.6096C373.485 79.2581 370.026 79.8345 367.577 79.8345Z" fill="black"/>
<path d="M394.632 79.9786C387.644 79.9786 383.537 76.4481 383.537 70.8283C383.537 61.8221 394.344 60.4531 401.837 59.8767C406.449 59.5885 410.844 59.0842 410.844 56.2742C410.844 50.5823 406.593 47.0519 400.973 47.0519C394.993 47.0519 390.958 50.5823 390.093 56.4904H384.69C385.554 47.4842 392.327 42.3686 401.045 42.3686C409.979 42.3686 416.175 47.8444 416.175 56.8506V73.9984H421.147V79.114H410.916V67.3699C408.898 74.5028 402.99 79.9786 394.632 79.9786ZM397.082 75.3674C404.936 75.3674 410.844 69.2432 410.844 62.0382L410.916 59.0842C409.403 60.4531 406.521 60.8854 402.702 61.1736C393.768 61.8941 389.373 64.1276 389.373 69.027C389.373 73.2779 392.471 75.3674 397.082 75.3674Z" fill="black"/>
<path d="M432.132 79.114V27.9587H437.896V60.3811H443.3L457.349 43.0891H463.618L449.064 60.6693L464.05 79.114H457.205L443.156 61.8221H437.896V79.114H432.132Z" fill="black"/>
<path d="M487.409 79.8345C476.673 79.8345 468.46 71.909 468.46 61.2457C468.46 50.2941 476.745 42.3686 487.481 42.3686C498.144 42.3686 506.286 50.2941 506.286 61.1016V61.8221H474.08C474.44 69.1711 480.132 74.6469 487.481 74.6469C492.885 74.6469 497.352 71.909 498.865 68.0183H504.989C503.62 74.2866 496.847 79.8345 487.409 79.8345ZM500.81 60.3811C500.522 53.032 494.902 47.5562 487.481 47.5562C480.132 47.5562 474.44 53.032 474.08 60.3811H500.81Z" fill="black"/>
</svg>
