<svg width="532" height="97" viewBox="0 0 532 97" fill="none" xmlns="http://www.w3.org/2000/svg">
<path d="M64.9385 80.4997V42.6771H70.9901V54.5534C72.73 47.6697 77.4956 41.9206 84.6819 41.9206C92.549 41.9206 96.5582 46.9889 96.5582 55.915V58.4869H90.5822V56.974C90.5822 50.8468 87.4051 47.594 82.0343 47.594C75.8314 47.594 70.9901 53.4187 70.9901 60.9076V80.4997H64.9385Z" fill="white"/>
<path d="M112.403 81.4074C105.065 81.4074 100.754 77.7008 100.754 71.8005C100.754 62.3448 112.1 60.9076 119.967 60.3024C124.809 59.9998 129.423 59.4703 129.423 56.5202C129.423 50.5442 124.96 46.8376 119.06 46.8376C112.781 46.8376 108.545 50.5442 107.637 56.7471H101.964C102.872 47.2915 109.982 41.9206 119.135 41.9206C128.515 41.9206 135.021 47.6697 135.021 57.1253V75.1289H140.24V80.4997H129.499V68.1695C127.381 75.6584 121.178 81.4074 112.403 81.4074ZM114.975 76.5661C123.22 76.5661 129.423 70.1363 129.423 62.5718L129.499 59.4703C127.91 60.9076 124.884 61.3615 120.875 61.664C111.495 62.4205 106.881 64.7655 106.881 69.9094C106.881 74.3724 110.134 76.5661 114.975 76.5661Z" fill="white"/>
<path d="M169.399 96.3852C155.934 96.3852 147.765 91.9221 147.765 84.5089C147.765 79.2894 152.076 74.5994 162.289 73.2377C151.471 72.2544 144.512 69.9094 144.512 63.7065C144.512 61.2102 146.554 59.1677 149.353 59.1677C150.564 59.1677 151.623 59.3947 152.833 59.9242C151.169 58.0331 150.261 55.9906 150.261 53.8726C150.261 47.4427 156.086 42.8284 166.752 42.0719V32.8432H172.879V42.0719C183.545 42.6014 190.202 47.2158 190.202 54.3265C190.202 61.8153 182.41 66.5053 170.231 66.5053C156.388 66.5053 155.329 60.7563 149.278 60.7563C147.311 60.7563 146.025 62.1179 146.025 63.7065C146.025 70.2119 157.22 71.9518 169.853 72.2544C182.259 72.5569 191.261 75.5071 191.261 83.9794C191.261 91.6195 182.788 96.3852 169.399 96.3852ZM170.231 64.9924C178.704 64.9924 184.226 61.2858 184.226 55.6881C184.226 50.0147 178.704 46.2324 170.231 46.2324C161.759 46.2324 156.313 50.0147 156.313 55.6881C156.313 61.2858 161.608 64.9924 170.231 64.9924ZM169.475 91.6952C178.93 91.6952 184.982 88.1398 184.982 82.8447C184.982 77.0956 179.46 73.8429 169.475 73.8429C160.095 73.8429 153.968 77.4739 153.968 82.8447C153.968 88.1398 160.095 91.6952 169.475 91.6952Z" fill="white"/>
<path d="M216.246 81.2561C204.672 81.2561 196.049 72.7839 196.049 61.5884C196.049 50.3929 204.672 41.9206 216.246 41.9206C227.744 41.9206 236.443 50.3929 236.443 61.5884C236.443 72.7839 227.744 81.2561 216.246 81.2561ZM216.246 75.5827C224.189 75.5827 230.24 69.5311 230.24 61.5884C230.24 53.6456 224.189 47.5184 216.246 47.5184C208.228 47.5184 202.176 53.6456 202.176 61.5884C202.176 69.5311 208.228 75.5827 216.246 75.5827Z" fill="white"/>
<path d="M247.181 80.4997V42.6771H253.233V54.5534C255.2 46.9889 260.722 41.9206 267.832 41.9206C277.515 41.9206 283.34 48.88 283.34 59.9242V80.4997H277.288V60.7563C277.288 52.6623 272.674 47.594 265.261 47.594C258.452 47.594 253.233 53.2674 253.233 60.7563V80.4997H247.181Z" fill="white"/>
<path d="M0 80.8028V0H40.4014V8.08028H48.4817V16.1606H56.562V64.6422H48.4817V72.7225H40.4014V80.8028H0ZM39.9911 72.7225V64.6422H48.0714V16.1606H39.9911V8.08028H8.08028V72.7225H39.9911Z" fill="white"/>
<path d="M313.38 12.7772V37.018H329.951V45.0983H346.112V53.1786H353.782V77.4194H346.112V85.4997H312.97V77.4194H305.3V61.2588H313.38V77.4194H345.702V53.1786H329.541V45.0983H312.97V37.018H305.3V12.7772H312.97V4.69688H346.112V12.7772H353.782V28.9377H345.702V12.7772H313.38Z" fill="white"/>
<path d="M385.92 84.3874C376.54 84.3874 372.379 80 372.379 71.9816V51.2548H363.151V45.8084H370.186C371.925 45.8084 372.909 44.825 372.909 43.0095V36.7309H378.431L378.355 45.8084H394.619V51.2548H378.355V70.6956C378.355 76.2934 381.078 78.714 387.054 78.714C389.097 78.714 391.744 78.3358 394.619 77.655V83.1014C392.123 83.7822 388.492 84.3874 385.92 84.3874Z" fill="white"/>
<path d="M414.326 84.5387C406.988 84.5387 402.676 80.8321 402.676 74.9317C402.676 65.4761 414.023 64.0388 421.89 63.4337C426.732 63.1311 431.346 62.6016 431.346 59.6514C431.346 53.6754 426.883 49.9688 420.983 49.9688C414.704 49.9688 410.468 53.6754 409.56 59.8784H403.887C404.794 50.4227 411.905 45.0519 421.058 45.0519C430.438 45.0519 436.944 50.8009 436.944 60.2566V78.2601H442.163V83.6309H431.422V71.3008C429.303 78.7897 423.101 84.5387 414.326 84.5387ZM416.898 79.6974C425.143 79.6974 431.346 73.2676 431.346 65.703L431.422 62.6016C429.833 64.0388 426.807 64.4927 422.798 64.7953C413.418 65.5518 408.804 67.8967 408.804 73.0406C408.804 77.5037 412.056 79.6974 416.898 79.6974Z" fill="white"/>
<path d="M453.697 83.6309V29.9229H459.748V63.9632H465.422L480.172 45.8084H486.754L471.473 64.2658L487.207 83.6309H480.021L465.27 65.4761H459.748V83.6309H453.697Z" fill="white"/>
<path d="M511.732 84.3874C500.461 84.3874 491.837 76.0664 491.837 64.8709C491.837 53.3729 500.536 45.0519 511.808 45.0519C523.003 45.0519 531.551 53.3729 531.551 64.7197V65.4761H497.738C498.116 73.1919 504.092 78.9409 511.808 78.9409C517.481 78.9409 522.171 76.0664 523.759 71.9816H530.189C528.752 78.5627 521.641 84.3874 511.732 84.3874ZM525.802 63.9632C525.499 56.2474 519.599 50.4984 511.808 50.4984C504.092 50.4984 498.116 56.2474 497.738 63.9632H525.802Z" fill="white"/>
</svg>
