<svg width="241" height="236" viewBox="0 0 241 236" fill="none" xmlns="http://www.w3.org/2000/svg">
<path d="M9.04714 145.273C6.3193 155.094 7.28174 159.375 8.72625 168.89C-27.3661 78.9741 55.1424 4.90643 134.544 22.0332C93.1638 23.9838 53.1535 61.8613 52.7652 101.612C52.9668 99.1643 55.6321 89.2727 84.0514 76.9807C81.6453 75.5534 81.3822 75.8611 75.8707 76.9807C88.0632 68.7105 118.489 66.7647 132.684 68.6408C127.011 67.1865 113.987 53.4107 113.987 53.4107C113.987 53.4107 137.086 67.4029 144.26 65.406C138.91 61.0877 139.883 51.9713 139.883 53.4107C143.568 59.2848 151.007 64.234 156.415 66.9272L154.971 59.7909C156.415 63.1212 164.154 69.9424 165.658 70.6839C169.736 72.6959 172.981 80.2726 178.07 85.4813L185.762 91.315C188.775 93.3124 191.603 95.1466 192.777 96.6361C195.501 100.091 191.898 102.583 191.417 107.817C181.301 102.059 159.333 105.418 156.415 107.817C155.604 105.577 159.567 91.4029 134.544 96.6361C129.584 97.6734 122.032 102.345 118.663 108.53L120.525 101.869C107.554 109.305 105.73 128.845 105.858 140.753C102.224 137.545 101.067 134.585 99.5806 127.515C94.6245 151.686 103.432 162.609 119.764 171.582C141.781 183.677 178.105 170.473 185.161 156.37C184.368 162.807 182.408 172.699 180.099 173.614C189.857 170.068 212.424 157.929 217.706 130.391C219.15 137.368 219.15 137.527 219.15 146.09C221.956 142.84 225.756 123.04 225.756 115.428C226.719 117.331 228.775 119.374 229.271 123.978C230.427 120.525 230.279 112.969 230.427 110.66C232.832 73.1209 213.378 19.7491 134.544 0C161.011 2.37862 188.921 12.3695 215.169 40.9143C214.688 39.4871 215.169 37.1083 215.651 32.8266C217.313 41.3901 219.719 48.0506 225.756 55.6625L227.681 48.0506C228.323 52.7676 230.286 59.0475 234.899 73.2652C251.261 123.695 232.974 174.073 200.733 188.396C205.545 188.396 215.169 183.639 219.982 181.736C185.815 218.368 146.836 217.417 132.881 217.417C146.355 223.602 170.991 222.042 191.417 211.006C124.11 260.523 49.6299 225.029 40.4867 190.775C38.9305 195.765 44.9637 212.155 46.2605 215.514C19.3122 196.008 10.8303 161.106 9.04714 145.273Z" fill="white"/>
</svg>
