<svg width="331" height="182" viewBox="0 0 331 182" fill="none" xmlns="http://www.w3.org/2000/svg">
<path d="M40.3504 171.757V148.255H44.1107V155.635C45.1917 151.357 48.1529 147.785 52.6182 147.785C57.5065 147.785 59.9977 150.934 59.9977 156.481V158.079H56.2845V157.139C56.2845 153.331 54.3103 151.31 50.9731 151.31C47.1189 151.31 44.1107 154.93 44.1107 159.583V171.757H40.3504Z" fill="white"/>
<path d="M69.843 172.321C65.2837 172.321 62.6045 170.018 62.6045 166.351C62.6045 160.476 69.655 159.583 74.5433 159.207C77.5515 159.019 80.4187 158.69 80.4187 156.857C80.4187 153.143 77.6455 150.84 73.9793 150.84C70.078 150.84 67.4458 153.143 66.8818 156.998H63.3566C63.9206 151.122 68.3389 147.785 74.0263 147.785C79.8546 147.785 83.8969 151.357 83.8969 157.233V168.419H87.1401V171.757H80.4657V164.095C79.1496 168.748 75.2953 172.321 69.843 172.321ZM71.4411 169.312C76.5644 169.312 80.4187 165.317 80.4187 160.617L80.4657 158.69C79.4786 159.583 77.5985 159.865 75.1073 160.053C69.279 160.523 66.4118 161.98 66.4118 165.176C66.4118 167.949 68.4329 169.312 71.4411 169.312Z" fill="white"/>
<path d="M105.258 181.627C96.8918 181.627 91.8154 178.854 91.8154 174.248C91.8154 171.005 94.4946 168.09 100.84 167.244C94.1186 166.633 89.7943 165.176 89.7943 161.322C89.7943 159.771 91.0634 158.502 92.8025 158.502C93.5546 158.502 94.2126 158.643 94.9647 158.972C93.9306 157.797 93.3665 156.528 93.3665 155.212C93.3665 151.216 96.9858 148.349 103.613 147.879V142.145H107.42V147.879C114.048 148.208 118.184 151.075 118.184 155.494C118.184 160.147 113.343 163.061 105.775 163.061C97.1738 163.061 96.5157 159.489 92.7555 159.489C91.5334 159.489 90.7344 160.335 90.7344 161.322C90.7344 165.364 97.6908 166.445 105.54 166.633C113.249 166.821 118.842 168.654 118.842 173.919C118.842 178.666 113.578 181.627 105.258 181.627ZM105.775 162.121C111.04 162.121 114.471 159.818 114.471 156.34C114.471 152.814 111.04 150.464 105.775 150.464C100.511 150.464 97.1268 152.814 97.1268 156.34C97.1268 159.818 100.417 162.121 105.775 162.121ZM105.305 178.713C111.181 178.713 114.941 176.504 114.941 173.214C114.941 169.642 111.51 167.62 105.305 167.62C99.4769 167.62 95.6697 169.877 95.6697 173.214C95.6697 176.504 99.4769 178.713 105.305 178.713Z" fill="white"/>
<path d="M134.367 172.227C127.176 172.227 121.817 166.962 121.817 160.006C121.817 153.049 127.176 147.785 134.367 147.785C141.512 147.785 146.917 153.049 146.917 160.006C146.917 166.962 141.512 172.227 134.367 172.227ZM134.367 168.701C139.302 168.701 143.063 164.941 143.063 160.006C143.063 155.071 139.302 151.263 134.367 151.263C129.385 151.263 125.625 155.071 125.625 160.006C125.625 164.941 129.385 168.701 134.367 168.701Z" fill="white"/>
<path d="M153.589 171.757V148.255H157.349V155.635C158.572 150.934 162.003 147.785 166.421 147.785C172.437 147.785 176.057 152.109 176.057 158.972V171.757H172.296V159.489C172.296 154.46 169.429 151.31 164.823 151.31C160.593 151.31 157.349 154.836 157.349 159.489V171.757H153.589Z" fill="white"/>
<path d="M0 172.469V122.262H25.1039V127.282H30.1247V132.303H35.1455V162.428H30.1247V167.449H25.1039V172.469H0ZM24.8489 167.449V162.428H29.8697V132.303H24.8489V127.282H5.02078V167.449H24.8489Z" fill="white"/>
<path d="M194.723 130.201V145.263H205.019V150.284H215.061V155.305H219.826V170.367H215.061V175.388H194.468V170.367H189.702V160.325H194.723V170.367H214.806V155.305H204.764V150.284H194.468V145.263H189.702V130.201H194.468V125.18H215.061V130.201H219.826V140.242H214.806V130.201H194.723Z" fill="white"/>
<path d="M239.796 174.173C233.968 174.173 231.383 171.446 231.383 166.464V153.585H225.648V150.201H230.019C231.101 150.201 231.712 149.59 231.712 148.462V144.561H235.143L235.096 150.201H245.201V153.585H235.096V165.665C235.096 169.143 236.788 170.647 240.501 170.647C241.77 170.647 243.415 170.412 245.201 169.989V173.374C243.65 173.797 241.394 174.173 239.796 174.173Z" fill="white"/>
<path d="M257.446 174.267C252.887 174.267 250.208 171.963 250.208 168.297C250.208 162.422 257.258 161.529 262.147 161.153C265.155 160.965 268.022 160.636 268.022 158.803C268.022 155.089 265.249 152.786 261.583 152.786C257.681 152.786 255.049 155.089 254.485 158.944H250.96C251.524 153.068 255.942 149.731 261.63 149.731C267.458 149.731 271.5 153.303 271.5 159.179V170.365H274.744V173.703H268.069V166.041C266.753 170.694 262.899 174.267 257.446 174.267ZM259.045 171.258C264.168 171.258 268.022 167.263 268.022 162.563L268.069 160.636C267.082 161.529 265.202 161.811 262.711 161.999C256.882 162.469 254.015 163.926 254.015 167.122C254.015 169.895 256.036 171.258 259.045 171.258Z" fill="white"/>
<path d="M281.91 173.703V140.33H285.67V161.482H289.196L298.361 150.201H302.45L292.956 161.67L302.732 173.703H298.267L289.102 162.422H285.67V173.703H281.91Z" fill="white"/>
<path d="M317.971 174.173C310.967 174.173 305.609 169.002 305.609 162.046C305.609 154.901 311.014 149.731 318.018 149.731C324.974 149.731 330.286 154.901 330.286 161.952V162.422H309.275C309.51 167.216 313.224 170.788 318.018 170.788C321.543 170.788 324.457 169.002 325.444 166.464H329.44C328.547 170.553 324.128 174.173 317.971 174.173ZM326.714 161.482C326.525 156.687 322.859 153.115 318.018 153.115C313.224 153.115 309.51 156.687 309.275 161.482H326.714Z" fill="white"/>
<path d="M144.852 48.6265C147.524 41.484 148.962 39.8558 152.25 38.2188C151.017 38.4229 150.195 38.831 147.113 41.2798C150.812 35.3618 154.305 31.8926 160.881 29.0356C159.853 28.4234 159.741 28.5554 157.388 29.0356C162.591 25.4906 175.102 25.6578 181.149 26.5025C178.72 25.8628 173.176 19.9727 173.176 19.9727C173.176 19.9727 183.04 25.9746 186.104 25.118C183.819 23.2657 184.235 19.3552 184.235 19.9727C185.809 22.4923 188.985 24.6153 191.295 25.7705L190.678 22.7094C191.295 24.1379 194.6 27.0639 195.242 27.3819C196.983 28.245 198.369 31.495 200.542 33.7293L203.488 35.8102C204.468 36.3653 205.352 36.8545 205.833 37.4668C206.996 38.9486 204.969 38.2188 204.764 40.4636C200.444 37.9939 195.007 38.6183 193.761 39.6473C193.414 38.6869 192.64 34.5456 181.954 36.7903C179.836 37.2353 176.611 39.2392 175.172 41.8921L175.967 39.0351C170.428 42.2247 170.266 49.4414 170.321 54.5493C168.036 50.8446 168.105 48.2377 168.659 46.5225C163.675 54.5493 164.033 67.7797 172.912 72.0947C182.57 76.7883 190.243 72.6342 193.256 66.5847C192.918 69.3404 191.7 72.9154 190.709 73.3079C194.881 71.793 204.769 68.3922 207.024 56.5852C207.846 61.4829 207.641 59.6463 207.641 63.3195C208.839 61.9255 209.173 57.1974 209.173 53.9323C209.584 54.7486 210.481 57.3116 210.611 56.3812C211.022 54.7486 211.259 52.0658 211.322 51.0753C212.349 34.9732 204.204 8.73292 170.539 0.261597C181.842 1.2819 193.761 5.56745 204.969 17.8117C204.764 17.1995 204.969 16.1791 205.175 14.3425C205.885 18.0158 206.912 20.8728 209.49 24.1379L210.312 20.8728C210.586 22.8961 211.425 25.5899 213.395 31.6886C220.382 53.3201 212.573 74.9297 198.804 81.0738C200.859 81.0738 204.969 79.0331 207.024 78.2168C192.434 93.9303 175.789 93.5221 169.829 93.5221C175.583 96.175 186.104 95.5061 194.826 90.7724C166.084 112.012 134.278 96.7873 130.374 82.0941C129.709 84.2346 132.286 91.2651 132.839 92.7058C121.332 84.3389 117.709 69.3678 116.948 62.576C115.783 66.7887 116.194 68.6254 116.811 72.7068C101.398 34.1374 135.511 0.87381 169.418 8.22032C153.389 10.6692 141.249 23.6103 140.742 40.4636C140.742 40.4636 142.386 38.2188 144.03 36.7903C142.386 40.6677 141.77 44.545 144.852 48.6265Z" fill="#EC602A"/>
</svg>
